<svg width="53" height="44" viewBox="0 0 53 44" fill="none" xmlns="http://www.w3.org/2000/svg">
<path d="M12.9919 9.13195C9.90105 11.2886 7.80206 18.2948 7.42725 20.9301V23.698C7.65214 31.771 14.8083 37.5374 14.8083 37.5374V41.228C14.9352 41.4817 14.8083 41.6835 15.0332 41.8392C15.272 42.013 15.5525 42.1204 15.8463 42.1506H23.112V37.5374C23.112 37.5374 25.7126 37.5374 26.8025 37.5374H31.4156V42.1506H38.7967C39.0942 42.1255 39.3793 42.0199 39.6213 41.845C39.6937 41.7735 39.751 41.6882 39.7897 41.594C39.8283 41.4999 39.8475 41.3989 39.8462 41.2972V35.1155C43.5768 32.9902 46.4636 29.6474 48.023 25.647L51.7135 23.9171V16.3631H48.1383C47.0258 13.304 45.1945 10.557 42.7986 8.35348C44.2748 6.13916 46.4372 3.03682 46.1777 2.48324C45.751 1.57791 39.258 1.07622 34.8121 5.68938C32.1762 5.14136 29.4944 4.84402 26.8025 4.80135C25.4181 4.7988 24.0357 4.90484 22.668 5.1185" fill="#FFDAC6"/>
<path d="M39.3098 15.7634C40.3353 15.7634 41.1666 14.9321 41.1666 13.9066C41.1666 12.8811 40.3353 12.0498 39.3098 12.0498C38.2843 12.0498 37.453 12.8811 37.453 13.9066C37.453 14.9321 38.2843 15.7634 39.3098 15.7634Z" fill="#666666"/>
<path d="M16.5727 14.5063C20.2574 14.5063 23.2444 11.5192 23.2444 7.83451C23.2444 4.14979 20.2574 1.16273 16.5727 1.16273C12.8879 1.16273 9.90088 4.14979 9.90088 7.83451C9.90088 11.5192 12.8879 14.5063 16.5727 14.5063Z" fill="#FFEB97"/>
<path d="M38.7966 43.1886H31.4155C31.1402 43.1886 30.8762 43.0792 30.6816 42.8846C30.4869 42.6899 30.3776 42.4259 30.3776 42.1506V38.5754H24.1498V42.1506C24.1498 42.4259 24.0405 42.6899 23.8458 42.8846C23.6511 43.0792 23.3871 43.1886 23.1118 43.1886H15.8461C15.3603 43.1637 14.8911 43.0039 14.491 42.7273C14.2914 42.6074 14.1257 42.4386 14.0096 42.2367C13.8936 42.0349 13.831 41.8068 13.8279 41.574C13.786 41.4594 13.7645 41.3384 13.7644 41.2164V38.0161C12.2133 36.6379 6.61982 31.1598 6.38917 23.7268C6.38917 23.3059 6.38917 22.81 6.38917 22.3025C6.38917 22.1411 6.38917 21.9796 6.38917 21.8239C3.35602 21.2473 0.991774 19.3559 0.85338 17.3261C0.818781 16.8013 0.899511 15.0195 3.48288 14.391C3.74514 14.3372 4.01803 14.3869 4.24454 14.5296C4.47106 14.6723 4.63367 14.897 4.69843 15.1567C4.76318 15.4165 4.72507 15.6912 4.59204 15.9235C4.45901 16.1559 4.24136 16.3278 3.98456 16.4034C3.57514 16.5072 2.8947 16.7437 2.92353 17.1819C2.96966 17.8681 4.22675 19.2002 6.49873 19.7249C6.78161 16.5995 7.95652 13.6212 9.88363 11.1445C10.0549 10.9288 10.3049 10.79 10.5785 10.7587C10.852 10.7273 11.1269 10.8059 11.3425 10.9772C11.5582 11.1485 11.6969 11.3984 11.7283 11.672C11.7597 11.9456 11.6811 12.2205 11.5098 12.4361C9.69334 14.7427 8.75341 17.3491 8.46508 20.9532V22.3256C8.46508 22.3256 8.46508 23.2713 8.46508 23.6634C8.67268 31.1598 15.3848 36.6725 15.4598 36.7244C15.5803 36.8216 15.6776 36.9446 15.7444 37.0843C15.8113 37.2239 15.846 37.3768 15.8461 37.5317V41.0435V41.1011H22.0739V37.5259C22.0739 37.2516 22.1824 36.9885 22.3759 36.794C22.5693 36.5995 22.8318 36.4895 23.1061 36.488C23.1061 36.488 25.7125 36.488 26.8081 36.488H31.4213C31.6966 36.488 31.9606 36.5973 32.1552 36.792C32.3499 36.9866 32.4593 37.2506 32.4593 37.5259V41.1011H38.8023V35.1156C38.8021 34.9353 38.8487 34.7582 38.9377 34.6014C39.0266 34.4447 39.1549 34.3139 39.3098 34.2218C42.8302 32.2145 45.5571 29.0622 47.0368 25.2895C47.1348 25.0336 47.3295 24.8265 47.5789 24.7129L50.6697 23.2828V17.401H48.1382C47.9233 17.4014 47.7135 17.335 47.5379 17.2111C47.3624 17.0871 47.2296 16.9117 47.1579 16.7091C46.1071 13.8231 44.3856 11.228 42.1353 9.13773C41.9456 8.97257 41.8223 8.74412 41.7883 8.49486C41.7544 8.2456 41.8121 7.9925 41.9508 7.78262L42.5275 6.88305C43.2944 5.72976 44.4823 3.94793 44.9494 3.008C43.3867 2.68508 38.8485 2.9561 35.5328 6.40444C35.4064 6.53586 35.2477 6.6317 35.0726 6.68232C34.8975 6.73293 34.7121 6.73653 34.5352 6.69276C31.9899 6.16725 29.401 5.88152 26.8024 5.83932C25.5885 5.8177 24.375 5.90066 23.1753 6.08728C22.9031 6.1301 22.625 6.06303 22.4022 5.90082C22.1794 5.7386 22.0302 5.49454 21.9874 5.22231C21.9446 4.95009 22.0116 4.672 22.1739 4.44923C22.3361 4.22646 22.5801 4.07725 22.8524 4.03443C24.1591 3.83323 25.4804 3.74257 26.8024 3.7634C29.3804 3.80961 31.9498 4.07389 34.4833 4.55341C35.8959 3.21477 37.5826 2.19914 39.4266 1.57684C41.2706 0.954548 43.2278 0.740453 45.1627 0.949381C46.2122 1.12237 46.8523 1.47989 47.1176 2.03924C47.55 2.95034 46.9215 4.05749 44.2747 8.03634L44.1709 8.1978C46.1938 10.2413 47.7911 12.6658 48.8705 15.3309H51.7134C51.9887 15.3309 52.2527 15.4402 52.4474 15.6349C52.642 15.8296 52.7514 16.0936 52.7514 16.3688V23.9402C52.7533 24.1352 52.7002 24.3268 52.5982 24.4931C52.4962 24.6593 52.3494 24.7934 52.1747 24.8801L48.8705 26.4082C47.2638 30.2649 44.4784 33.5145 40.9129 35.6922V41.3145C40.9145 41.5566 40.8668 41.7965 40.7726 42.0196C40.6784 42.2427 40.5397 42.4442 40.365 42.6119C39.9212 42.9738 39.3691 43.1768 38.7966 43.1886Z" fill="#666666"/>
<path d="M16.5727 15.4405C15.0684 15.4405 13.5979 14.9944 12.3471 14.1586C11.0963 13.3229 10.1214 12.135 9.54577 10.7452C8.97009 9.35538 8.81947 7.82608 9.11295 6.35067C9.40642 4.87527 10.1308 3.52002 11.1945 2.45631C12.2582 1.3926 13.6135 0.668203 15.0889 0.374726C16.5643 0.0812491 18.0936 0.231872 19.4834 0.807548C20.8732 1.38322 22.0611 2.3581 22.8968 3.60889C23.7326 4.85968 24.1787 6.33021 24.1787 7.83452C24.1756 9.8508 23.3733 11.7836 21.9476 13.2094C20.5218 14.6351 18.589 15.4374 16.5727 15.4405ZM16.5727 2.09691C15.4322 2.09691 14.3174 2.4351 13.3691 3.06873C12.4208 3.70235 11.6817 4.60295 11.2452 5.65663C10.8088 6.71031 10.6946 7.86975 10.9171 8.98833C11.1396 10.1069 11.6888 11.1344 12.4952 11.9408C13.3017 12.7473 14.3292 13.2965 15.4478 13.519C16.5663 13.7415 17.7258 13.6273 18.7795 13.1908C19.8331 12.7544 20.7337 12.0153 21.3674 11.067C22.001 10.1187 22.3392 9.00384 22.3392 7.86335C22.3377 6.33499 21.7294 4.86976 20.6482 3.78959C19.5669 2.70942 18.1011 2.10267 16.5727 2.10267V2.09691Z" fill="#666666"/>
<path d="M16.5727 12.0671C15.0042 12.0671 13.9086 11.0983 13.9086 9.72015C13.9086 9.51369 13.9906 9.31568 14.1366 9.16969C14.2826 9.0237 14.4806 8.94168 14.6871 8.94168C14.8935 8.94168 15.0915 9.0237 15.2375 9.16969C15.3835 9.31568 15.4655 9.51369 15.4655 9.72015C15.4655 10.4121 16.1575 10.5102 16.5727 10.5102C16.9879 10.5102 17.6799 10.4064 17.6799 9.72015C17.6799 9.30496 17.6395 9.23 16.5266 8.68219L15.9153 8.37657C14.837 7.84029 13.9028 7.37897 13.9028 5.94313C13.9028 4.50728 14.9985 3.57889 16.5669 3.57889C18.1354 3.57889 19.208 4.53035 19.208 5.94313C19.208 6.04536 19.1878 6.14659 19.1487 6.24104C19.1096 6.33548 19.0522 6.4213 18.98 6.49359C18.9077 6.56588 18.8218 6.62322 18.7274 6.66234C18.6329 6.70146 18.5317 6.7216 18.4295 6.7216C18.3273 6.7216 18.226 6.70146 18.1316 6.66234C18.0371 6.62322 17.9513 6.56588 17.879 6.49359C17.8067 6.4213 17.7494 6.33548 17.7103 6.24104C17.6712 6.14659 17.651 6.04536 17.651 5.94313C17.651 5.23962 16.9706 5.13583 16.5669 5.13583C16.1633 5.13583 15.4598 5.21656 15.4598 5.94313C15.4598 6.35831 15.5001 6.43328 16.6131 6.97532L17.2243 7.27518C18.3084 7.80569 19.2426 8.26701 19.2426 9.70862C19.2426 11.1502 18.1527 12.0671 16.5727 12.0671Z" fill="#666666"/>
<path d="M16.538 5.08967C16.3315 5.08967 16.1335 5.00766 15.9875 4.86167C15.8415 4.71567 15.7595 4.51767 15.7595 4.3112V3.4347C15.7595 3.22824 15.8415 3.03023 15.9875 2.88424C16.1335 2.73825 16.3315 2.65623 16.538 2.65623C16.7445 2.65623 16.9425 2.73825 17.0885 2.88424C17.2344 3.03023 17.3165 3.22824 17.3165 3.4347V4.3112C17.3165 4.51767 17.2344 4.71567 17.0885 4.86167C16.9425 5.00766 16.7445 5.08967 16.538 5.08967Z" fill="#666666"/>
<path d="M16.538 13.0128C16.4358 13.0128 16.3345 12.9926 16.2401 12.9535C16.1456 12.9144 16.0598 12.8571 15.9875 12.7848C15.9152 12.7125 15.8579 12.6267 15.8188 12.5322C15.7797 12.4378 15.7595 12.3365 15.7595 12.2343V11.329C15.7595 11.1225 15.8415 10.9245 15.9875 10.7785C16.1335 10.6325 16.3315 10.5505 16.538 10.5505C16.7445 10.5505 16.9425 10.6325 17.0885 10.7785C17.2344 10.9245 17.3165 11.1225 17.3165 11.329V12.2055C17.3203 12.3101 17.3031 12.4144 17.2657 12.5122C17.2283 12.61 17.1716 12.6993 17.0989 12.7747C17.0262 12.85 16.9391 12.91 16.8427 12.9509C16.7463 12.9918 16.6427 13.0128 16.538 13.0128Z" fill="#666666"/>
</svg>
