<svg width="144" height="62" viewBox="0 0 144 62" fill="none" xmlns="http://www.w3.org/2000/svg">
<path d="M4.964 49V15.496H25.412V19.048H8.996V30.28H24.452V33.832H8.996V45.448H25.412V49H4.964ZM28.2924 49L37.4604 36.52L28.6764 24.232H33.1884L39.4764 33.448H39.6204L46.1484 24.232H50.4204L41.6844 36.232L50.6124 49H46.1004L39.6684 39.304H39.5244L32.5644 49H28.2924ZM63.146 49.576C61.418 49.576 59.866 49.272 58.49 48.664C57.114 48.056 55.946 47.192 54.986 46.072C54.058 44.952 53.338 43.592 52.826 41.992C52.346 40.392 52.106 38.6 52.106 36.616C52.106 34.632 52.346 32.84 52.826 31.24C53.338 29.64 54.058 28.28 54.986 27.16C55.946 26.04 57.114 25.176 58.49 24.568C59.866 23.96 61.418 23.656 63.146 23.656C65.61 23.656 67.578 24.2 69.05 25.288C70.554 26.344 71.674 27.736 72.41 29.464L69.194 31.096C68.746 29.816 68.01 28.824 66.986 28.12C65.962 27.416 64.682 27.064 63.146 27.064C61.994 27.064 60.986 27.256 60.122 27.64C59.258 27.992 58.538 28.504 57.962 29.176C57.386 29.816 56.954 30.6 56.666 31.528C56.378 32.424 56.234 33.416 56.234 34.504V38.728C56.234 40.904 56.81 42.696 57.962 44.104C59.146 45.48 60.874 46.168 63.146 46.168C66.25 46.168 68.49 44.728 69.866 41.848L72.65 43.72C71.85 45.512 70.65 46.936 69.05 47.992C67.482 49.048 65.514 49.576 63.146 49.576ZM85.9014 49.576C84.2054 49.576 82.6694 49.272 81.2934 48.664C79.9494 48.056 78.7814 47.192 77.7894 46.072C76.8294 44.92 76.0774 43.56 75.5334 41.992C75.0214 40.392 74.7654 38.6 74.7654 36.616C74.7654 34.664 75.0214 32.888 75.5334 31.288C76.0774 29.688 76.8294 28.328 77.7894 27.208C78.7814 26.056 79.9494 25.176 81.2934 24.568C82.6694 23.96 84.2054 23.656 85.9014 23.656C87.5654 23.656 89.0534 23.96 90.3654 24.568C91.6774 25.176 92.7974 26.024 93.7254 27.112C94.6534 28.168 95.3574 29.432 95.8374 30.904C96.3494 32.376 96.6054 33.992 96.6054 35.752V37.576H78.7974V38.728C78.7974 39.784 78.9574 40.776 79.2774 41.704C79.6294 42.6 80.1094 43.384 80.7174 44.056C81.3574 44.728 82.1254 45.256 83.0214 45.64C83.9494 46.024 84.9894 46.216 86.1414 46.216C87.7094 46.216 89.0694 45.848 90.2214 45.112C91.4054 44.376 92.3174 43.32 92.9574 41.944L95.6934 43.912C94.8934 45.608 93.6454 46.984 91.9494 48.04C90.2534 49.064 88.2374 49.576 85.9014 49.576ZM85.9014 26.872C84.8454 26.872 83.8854 27.064 83.0214 27.448C82.1574 27.8 81.4054 28.312 80.7654 28.984C80.1574 29.656 79.6774 30.456 79.3254 31.384C78.9734 32.28 78.7974 33.272 78.7974 34.36V34.696H92.4774V34.168C92.4774 31.96 91.8694 30.2 90.6534 28.888C89.4694 27.544 87.8854 26.872 85.9014 26.872ZM109.173 49.576C106.869 49.576 104.933 49.144 103.365 48.28C101.829 47.384 100.501 46.2 99.3811 44.728L102.117 42.52C103.077 43.736 104.149 44.68 105.333 45.352C106.517 45.992 107.893 46.312 109.461 46.312C111.093 46.312 112.357 45.96 113.253 45.256C114.181 44.552 114.645 43.56 114.645 42.28C114.645 41.32 114.325 40.504 113.685 39.832C113.077 39.128 111.957 38.648 110.325 38.392L108.357 38.104C107.205 37.944 106.149 37.704 105.189 37.384C104.229 37.032 103.381 36.584 102.645 36.04C101.941 35.464 101.381 34.76 100.965 33.928C100.581 33.096 100.389 32.104 100.389 30.952C100.389 29.736 100.613 28.68 101.061 27.784C101.509 26.856 102.117 26.088 102.885 25.48C103.685 24.872 104.629 24.424 105.717 24.136C106.805 23.816 107.973 23.656 109.221 23.656C111.237 23.656 112.917 24.008 114.261 24.712C115.637 25.416 116.837 26.392 117.861 27.64L115.317 29.944C114.773 29.176 113.973 28.488 112.917 27.88C111.861 27.24 110.533 26.92 108.933 26.92C107.333 26.92 106.117 27.272 105.285 27.976C104.485 28.648 104.085 29.576 104.085 30.76C104.085 31.976 104.485 32.856 105.285 33.4C106.117 33.944 107.301 34.344 108.837 34.6L110.757 34.888C113.509 35.304 115.461 36.104 116.613 37.288C117.765 38.44 118.341 39.96 118.341 41.848C118.341 44.248 117.525 46.136 115.893 47.512C114.261 48.888 112.021 49.576 109.173 49.576ZM131.083 49.576C128.779 49.576 126.843 49.144 125.275 48.28C123.739 47.384 122.411 46.2 121.291 44.728L124.027 42.52C124.987 43.736 126.059 44.68 127.243 45.352C128.427 45.992 129.803 46.312 131.371 46.312C133.003 46.312 134.267 45.96 135.163 45.256C136.091 44.552 136.555 43.56 136.555 42.28C136.555 41.32 136.235 40.504 135.595 39.832C134.987 39.128 133.867 38.648 132.234 38.392L130.267 38.104C129.115 37.944 128.059 37.704 127.099 37.384C126.139 37.032 125.291 36.584 124.555 36.04C123.851 35.464 123.291 34.76 122.875 33.928C122.491 33.096 122.299 32.104 122.299 30.952C122.299 29.736 122.523 28.68 122.971 27.784C123.419 26.856 124.027 26.088 124.795 25.48C125.595 24.872 126.539 24.424 127.627 24.136C128.715 23.816 129.883 23.656 131.131 23.656C133.147 23.656 134.827 24.008 136.171 24.712C137.547 25.416 138.747 26.392 139.771 27.64L137.227 29.944C136.683 29.176 135.883 28.488 134.827 27.88C133.771 27.24 132.443 26.92 130.843 26.92C129.243 26.92 128.027 27.272 127.195 27.976C126.395 28.648 125.995 29.576 125.995 30.76C125.995 31.976 126.395 32.856 127.195 33.4C128.027 33.944 129.211 34.344 130.747 34.6L132.667 34.888C135.419 35.304 137.371 36.104 138.523 37.288C139.675 38.44 140.251 39.96 140.251 41.848C140.251 44.248 139.435 46.136 137.803 47.512C136.171 48.888 133.931 49.576 131.083 49.576Z" fill="white"/>
</svg>
