<svg width="101" height="100" viewBox="0 0 101 100" fill="none" xmlns="http://www.w3.org/2000/svg">
<g clip-path="url(#clip0_334_840)">
<path d="M6.86341 44.8281L0.548828 44.6198C3.23216 19.5344 24.4613 0 50.253 0C68.7759 0 84.9488 10.0781 93.5863 25.0542L73.7634 25.0646C56.4884 25.0729 41.3145 29.6563 32.6488 36.5729C25.3686 42.3646 16.1509 45.1385 6.86341 44.8281ZM33.1363 63.8198C25.7655 58.1708 16.5405 55.474 7.2582 55.7583L0.61237 55.9583C3.55508 80.7677 24.6572 100.008 50.253 100.008C68.7988 100.008 84.9895 89.901 93.6186 74.8958L73.7842 74.9042C56.8238 74.9083 41.8801 70.5021 33.1363 63.8198ZM61.0561 59.1521C60.9665 60.6542 61.5426 62.0146 62.5051 62.9885C63.4082 63.8854 64.6468 64.4417 66.0155 64.4417L98.1332 64.4271C99.0936 61.2406 99.7405 57.9219 100.047 54.5031L66.2249 54.5156C63.5686 54.5156 61.227 56.5031 61.0561 59.1521ZM61.0509 40.3688C60.9603 41.8646 61.5363 43.2313 62.4988 44.1958C63.402 45.1021 64.6405 45.649 66.0092 45.649L100.059 45.6354C99.7624 42.2208 99.1249 38.9031 98.1759 35.7177L66.2186 35.7292C63.5603 35.7333 61.2207 37.7219 61.0509 40.3688Z" fill="white"/>
</g>
<defs>
<clipPath id="clip0_334_840">
<rect width="100" height="100" fill="white" transform="translate(0.5)"/>
</clipPath>
</defs>
</svg>
