<svg width="166" height="64" viewBox="0 0 166 64" fill="none" xmlns="http://www.w3.org/2000/svg">
<path d="M22.4812 11.6569V34.2383C22.4812 35.694 22.3902 37.0917 22.2085 38.4321C22.0265 39.7716 21.4892 41.0698 20.596 42.3263C19.4704 43.9479 18.0888 45.1641 16.4506 45.9748C14.8134 46.7856 13.0519 47.191 11.1662 47.191C9.87563 47.191 8.65947 46.9757 7.51775 46.5452C6.37693 46.1147 5.33476 45.5277 4.39125 44.7838C3.44864 44.0389 2.63024 43.1622 1.93561 42.1541C1.24053 41.1452 0.711378 40.0608 0.348145 38.9021L6.84868 36.7191C7.11281 37.6783 7.61686 38.4725 8.36081 39.1012C9.10567 39.7303 9.97429 40.0447 10.9671 40.0447C12.1259 40.0447 13.0272 39.6564 13.6721 38.8788C14.3178 38.1003 14.7232 37.2151 14.8883 36.2222C14.8883 36.0908 14.8963 35.628 14.9134 34.8339C14.93 34.0401 14.9385 33.0558 14.9385 31.8814C14.9385 30.706 14.9385 29.3822 14.9385 27.91C14.9385 26.4382 14.9385 24.9575 14.9385 23.4687C14.9385 19.9615 14.9214 16.0242 14.8883 11.6569H22.4812Z" fill="white"/>
<path d="M48.6831 11.6569L63.3739 46.843H55.2339L52.0589 39.3003H37.1206L33.9941 46.843H25.8057L40.4947 11.6569H48.6831ZM49.2302 32.4518L44.6131 21.3844L39.9978 32.4518H49.2302Z" fill="white"/>
<path d="M86.9436 11.6569V34.2383C86.9436 35.694 86.8526 37.0917 86.6709 38.4321C86.4889 39.7716 85.9516 41.0698 85.0584 42.3263C83.9328 43.9479 82.5512 45.1641 80.913 45.9748C79.2758 46.7856 77.5143 47.191 75.6286 47.191C74.338 47.191 73.1219 46.9757 71.9802 46.5452C70.8393 46.1147 69.7972 45.5277 68.8537 44.7838C67.911 44.0389 67.0926 43.1622 66.398 42.1541C65.7029 41.1452 65.1738 40.0608 64.8105 38.9021L71.3111 36.7191C71.5752 37.6783 72.0793 38.4725 72.8232 39.1012C73.5681 39.7303 74.4367 40.0447 75.4295 40.0447C76.5883 40.0447 77.4896 39.6564 78.1345 38.8788C78.7802 38.1003 79.1856 37.2151 79.3507 36.2222C79.3507 36.0908 79.3587 35.628 79.3758 34.8339C79.3924 34.0401 79.4009 33.0558 79.4009 31.8814C79.4009 30.706 79.4009 29.3822 79.4009 27.91C79.4009 26.4382 79.4009 24.9575 79.4009 23.4687C79.4009 19.9615 79.3838 16.0242 79.3507 11.6569H86.9436Z" fill="white"/>
<path d="M113.146 11.6569L127.836 46.843H119.696L116.521 39.3003H101.583L98.4565 46.843H90.2681L104.957 11.6569H113.146ZM113.693 32.4518L109.076 21.3844L104.46 32.4518H113.693Z" fill="white"/>
<path d="M155.327 11.6569H162.821V46.843H155.675L138.751 23.8651V46.843H131.257V11.6569H138.304L155.327 34.7836V11.6569Z" fill="white"/>
</svg>
