<svg width="100" height="100" viewBox="0 0 100 100" fill="none" xmlns="http://www.w3.org/2000/svg">
<g clip-path="url(#clip0_564_967)">
<path d="M50 0C22.3854 0 0 22.3854 0 50C0 77.6146 22.3854 100 50 100C77.6146 100 100 77.6146 100 50C100 22.3854 77.6146 0 50 0Z" fill="white"/>
<path d="M48.0311 82.2098C65.5373 82.2098 76.4269 69.8129 76.4269 52.892V22.6545H39.5706V32.2868H64.8675V52.892C64.8675 65.792 57.2446 72.3254 48.0311 72.3254C39.2363 72.3254 29.9383 66.7973 29.9383 51.3014H19.0498C19.0498 70.566 30.8602 82.2098 48.0311 82.2098Z" fill="#51C699"/>
</g>
<defs>
<clipPath id="clip0_564_967">
<rect width="100" height="100" fill="white"/>
</clipPath>
</defs>
</svg>
