<svg width="48" height="44" viewBox="0 0 48 44" fill="none" xmlns="http://www.w3.org/2000/svg">
<path d="M16.9022 38.0671L17.9234 38.0302C20.771 37.946 22.629 42.2411 24.766 42.2411H41.6095C43.7149 42.2411 44.1255 39.1408 44.0992 37.8565C44.0992 37.8565 46.6994 36.6933 45.5098 32.0087C46.0084 31.5372 46.4003 30.9645 46.659 30.3289C46.9178 29.6934 47.0374 29.0098 47.0099 28.3242C47.0335 27.6619 46.9204 27.0018 46.6777 26.3851C46.435 25.7684 46.0679 25.2083 45.5993 24.7397C46.4915 23.6722 46.9896 22.3304 47.0099 20.9394C47.0099 18.676 45.0203 17.3864 42.9043 17.3864H36.7196C31.3297 17.3864 31.7824 14.5441 31.7824 14.5441C31.7824 14.5441 31.1718 7.10666 29.2769 3.70112C26.8978 -0.604496 22.1342 0.832463 23.9028 6.39081C25.224 10.4859 19.1656 16.6548 16.9759 18.7339" fill="#FFDAC6"/>
<path d="M14.818 15.8547H3.67496C1.56953 15.8547 1.5011 17.4338 1.5011 19.3655V37.2091C1.5011 39.1461 1.56426 40.7146 3.67496 40.7146H14.818C16.9234 40.7146 16.9918 39.1356 16.9918 37.2091V19.3655C16.9918 17.4285 16.9339 15.8547 14.818 15.8547Z" fill="#59D9A8"/>
<path d="M9.24901 36.7354C10.342 36.7354 11.2281 35.8493 11.2281 34.7563C11.2281 33.6633 10.342 32.7772 9.24901 32.7772C8.15597 32.7772 7.2699 33.6633 7.2699 34.7563C7.2699 35.8493 8.15597 36.7354 9.24901 36.7354Z" fill="#FFEB97"/>
<path d="M41.5831 43.1885H24.766C23.4027 43.1885 22.2974 42.0937 21.2236 41.0357C20.1498 39.9777 19.1181 38.9303 17.9654 38.9777L16.9548 39.0092L16.8706 37.1196L17.8812 37.088C19.8077 36.9933 21.2657 38.4408 22.529 39.6883C23.329 40.4778 24.1554 41.2673 24.7397 41.2673H41.5831C41.7117 41.2702 41.8393 41.2454 41.9574 41.1945C42.0755 41.1437 42.1812 41.068 42.2674 40.9726C42.9306 40.2988 43.1411 38.6987 43.1201 37.8513V37.2196L43.6991 36.9617C43.757 36.9301 45.5361 35.9879 44.5728 32.2245L44.3834 31.4929L44.9571 31.1876C45.6779 30.3961 46.0564 29.3516 46.0098 28.2821C46.0336 27.7587 45.9528 27.2359 45.7721 26.7443C45.5913 26.2526 45.3142 25.8019 44.9571 25.4187L44.2044 24.7818L44.8729 24.0554C45.6005 23.1614 46.0082 22.0497 46.0309 20.8973C46.0309 19.1076 44.3939 18.2918 42.8727 18.2918H36.7196C34.2562 18.2918 32.5087 17.7233 31.5665 16.6074C31.058 16.0273 30.7939 15.2727 30.8296 14.502C30.7559 13.7072 30.119 7.13298 28.4505 4.11695C27.4925 2.42207 26.1714 1.87992 25.3608 2.23785C24.5502 2.59577 24.0975 3.9064 24.8081 6.10658C26.2187 10.4859 20.913 16.3337 17.6286 19.4287L16.3442 18.0286C20.1761 14.4178 23.9449 9.53844 23.0185 6.66979C21.871 3.11687 23.1658 1.1167 24.5975 0.485075C26.1766 -0.188664 28.5294 0.379803 30.098 3.21161C32.0666 6.754 32.6929 14.1283 32.7298 14.4388V14.5546V14.6652C32.7365 14.951 32.8513 15.2237 33.0509 15.4284C33.3825 15.7968 34.3089 16.4127 36.7354 16.4127H42.8727C45.7519 16.4127 47.9257 18.3444 47.9257 20.913C47.9119 22.2475 47.5155 23.5501 46.7836 24.666C47.5447 25.7244 47.9452 26.9996 47.9257 28.3031C47.9485 29.7646 47.4503 31.1864 46.5204 32.314C47.2889 35.9985 45.8519 37.7039 45.0045 38.3724C44.9571 39.3093 44.7202 41.1989 43.6201 42.3253C43.357 42.6 43.0407 42.8182 42.6905 42.9666C42.3403 43.115 41.9635 43.1905 41.5831 43.1885Z" fill="#666666"/>
<path d="M14.8179 41.6621H3.67489C0.553589 41.6621 0.553589 38.9829 0.553589 37.2091V19.3655C0.553589 17.5917 0.553589 14.9073 3.67489 14.9073H14.8179C17.9392 14.9073 17.9392 17.5917 17.9392 19.3655V37.2091C17.9234 38.9829 17.9234 41.6621 14.8179 41.6621ZM3.67489 16.8022C2.68008 16.8022 2.44848 17.039 2.44848 19.3655V37.2091C2.44848 39.5303 2.68008 39.7672 3.67489 39.7672H14.8179C15.8127 39.7672 16.0443 39.5303 16.0443 37.2091V19.3655C16.0443 17.039 15.8127 16.8022 14.8179 16.8022H3.67489Z" fill="#666666"/>
</svg>
