<svg width="53" height="44" viewBox="0 0 53 44" fill="none" xmlns="http://www.w3.org/2000/svg">
<path d="M1.45251 19.6324H13.9203V38.6077H1.45251V19.6324Z" fill="#59D9A8"/>
<path d="M19.5198 14.1436L15.0146 22.1644V19.6906V19.6383V5.6629L19.5198 14.1436Z" fill="#C7C7C7"/>
<path d="M21.4056 15.2495H25.48V19.6674L27.2553 21.4136L29.2634 20.4066L31.0562 21.303L32.8489 20.4066L34.8571 21.4136L36.6382 19.6674V15.2495H41.6497L46.3063 25.779H25.6081C25.5529 25.7863 25.4984 25.798 25.4451 25.814C23.7513 24.6498 21.3008 23.3635 17.0634 22.9677L21.4056 15.2495Z" fill="#C4C4C4"/>
<path d="M47.1677 22.2925L43.5939 14.1668L47.1677 6.32062V22.2925Z" fill="#C7C7C7"/>
<path d="M46.5626 2.37422L41.6907 13.0667H36.6675V2.37422H46.5626Z" fill="#D6D6D6"/>
<path d="M25.5091 13.0667H21.423L15.7362 2.37422H25.5091V13.0667Z" fill="#D6D6D6"/>
<path d="M34.4788 2.37422V18.7593L34.4613 18.7826L32.8839 17.991L31.0912 18.8874L29.2926 17.991L27.7152 18.7826L27.6978 2.37422H34.4788Z" fill="#FFEB97"/>
<path d="M30.8526 41.0524C27.6571 41.0524 23.6408 39.0094 20.4104 37.3679C18.1927 36.262 16.3825 35.3191 15.0146 35.0979V25.0456C20.8935 25.1679 23.3789 26.9839 25.195 28.3168C26.2485 29.091 27.1798 29.7604 28.3439 29.7604H28.4662C30.1483 29.7604 34.0365 29.7604 35.352 31.3319C35.5859 31.6213 35.7278 31.974 35.7594 32.3447H23.018C22.7278 32.3447 22.4495 32.46 22.2443 32.6652C22.039 32.8705 21.9238 33.1488 21.9238 33.439C21.9238 33.7292 22.039 34.0076 22.2443 34.2128C22.4495 34.418 22.7278 34.5333 23.018 34.5333H36.7198C39.2634 35.1154 42.1388 32.6881 44.6883 30.552C45.8059 29.5916 47.552 28.148 48.1341 28.1131C49.9152 28.1131 50.6777 28.9164 50.6777 30.7964C50.6486 33.0374 37.2029 41.0524 30.8526 41.0524Z" fill="#FFDAC6"/>
<path d="M7.68636 35.255C8.89507 35.255 9.87493 34.2752 9.87493 33.0665C9.87493 31.8578 8.89507 30.8779 7.68636 30.8779C6.47766 30.8779 5.4978 31.8578 5.4978 33.0665C5.4978 34.2752 6.47766 35.255 7.68636 35.255Z" fill="white"/>
<path d="M48.2562 27.921H25.608C25.3302 27.921 25.0637 27.8106 24.8672 27.6142C24.6707 27.4177 24.5603 27.1512 24.5603 26.8733C24.5603 26.5954 24.6707 26.329 24.8672 26.1325C25.0637 25.936 25.3302 25.8256 25.608 25.8256H47.2085V2.32767H14.9563V19.6906C14.9563 19.8282 14.9292 19.9645 14.8765 20.0916C14.8239 20.2187 14.7467 20.3342 14.6494 20.4315C14.5521 20.5288 14.4366 20.606 14.3095 20.6586C14.1824 20.7113 14.0461 20.7384 13.9086 20.7384C13.771 20.7384 13.6347 20.7113 13.5076 20.6586C13.3805 20.606 13.265 20.5288 13.1677 20.4315C13.0704 20.3342 12.9932 20.2187 12.9406 20.0916C12.8879 19.9645 12.8608 19.8282 12.8608 19.6906V1.27995C12.8608 1.00208 12.9712 0.735592 13.1677 0.539107C13.3642 0.342623 13.6307 0.232239 13.9086 0.232239H48.2503C48.5282 0.232239 48.7947 0.342623 48.9912 0.539107C49.1877 0.735592 49.2981 1.00208 49.2981 1.27995V26.8908C49.2935 27.1646 49.1819 27.4258 48.9872 27.6183C48.7924 27.8109 48.53 27.9195 48.2562 27.921Z" fill="#666666"/>
<path d="M15.7364 24.1551C15.5537 24.1551 15.3741 24.1072 15.2155 24.0163C15.057 23.9254 14.9249 23.7947 14.8325 23.637C14.7402 23.4793 14.6906 23.3001 14.6889 23.1174C14.6871 22.9346 14.7332 22.7546 14.8226 22.5951L19.8574 13.643C19.9497 13.4808 20.0836 13.3462 20.2452 13.2531C20.4069 13.16 20.5905 13.1117 20.7771 13.1133H26.5977C26.8756 13.1133 27.1421 13.2237 27.3386 13.4202C27.5351 13.6167 27.6455 13.8832 27.6455 14.161C27.6455 14.4389 27.5351 14.7054 27.3386 14.9019C27.1421 15.0984 26.8756 15.2088 26.5977 15.2088H21.3592L16.6503 23.6196C16.5593 23.782 16.4266 23.9172 16.266 24.0113C16.1054 24.1054 15.9226 24.1551 15.7364 24.1551Z" fill="#666666"/>
<path d="M47.7441 27.3564C47.5402 27.3565 47.3407 27.297 47.1701 27.1853C46.9995 27.0737 46.8652 26.9147 46.7837 26.7278L41.7313 15.2087H35.5731C35.2952 15.2087 35.0287 15.0984 34.8323 14.9019C34.6358 14.7054 34.5254 14.4389 34.5254 14.161C34.5254 13.8832 34.6358 13.6167 34.8323 13.4202C35.0287 13.2237 35.2952 13.1133 35.5731 13.1133H42.3949C42.5988 13.1133 42.7983 13.1727 42.9689 13.2844C43.1394 13.3961 43.2738 13.5551 43.3553 13.7419L48.7161 25.8896C48.7857 26.0491 48.8145 26.2234 48.7999 26.3967C48.7853 26.5701 48.7277 26.7371 48.6324 26.8826C48.5371 27.0282 48.4071 27.1477 48.254 27.2304C48.1009 27.3132 47.9297 27.3565 47.7557 27.3564H47.7441Z" fill="#666666"/>
<path d="M42.3949 15.2087C42.2464 15.209 42.0995 15.1772 41.9642 15.1156C41.7122 15.0002 41.5161 14.7896 41.419 14.53C41.3219 14.2703 41.3317 13.9828 41.4462 13.7303L47.3076 0.843402C47.4226 0.59023 47.6335 0.393115 47.8938 0.295418C48.1541 0.197721 48.4426 0.207447 48.6958 0.322455C48.949 0.437463 49.1461 0.648332 49.2438 0.908674C49.3415 1.16902 49.3318 1.45751 49.2167 1.71068L43.3495 14.5918C43.2667 14.7755 43.1325 14.9315 42.9632 15.041C42.7939 15.1504 42.5966 15.2087 42.3949 15.2087Z" fill="#666666"/>
<path d="M20.777 15.2087C20.5841 15.2063 20.3956 15.1507 20.2323 15.048C20.069 14.9453 19.9372 14.7995 19.8515 14.6267L12.9948 1.76888C12.8643 1.52343 12.8367 1.23621 12.9181 0.970406C12.9994 0.704605 13.183 0.481997 13.4284 0.351552C13.6739 0.221107 13.9611 0.19351 14.2269 0.274833C14.4927 0.356156 14.7153 0.539737 14.8457 0.78519L21.6908 13.6663C21.7759 13.8252 21.8186 14.0034 21.8148 14.1836C21.8109 14.3638 21.7606 14.54 21.6687 14.6951C21.5768 14.8502 21.4465 14.979 21.2902 15.0689C21.134 15.1589 20.9572 15.2071 20.777 15.2087Z" fill="#666666"/>
<path d="M27.2961 21.3845L25.5499 19.6383V0.232239H36.6091V19.6499L34.863 21.3961L32.8839 20.3833L31.0912 21.2797L29.2984 20.3833L27.2961 21.3845ZM29.2926 18.0434L31.0854 18.9398L32.8839 18.0434L34.4672 18.835L34.5254 18.7768V2.32767H27.6512V18.8001L27.7094 18.8583L29.2926 18.0434Z" fill="#666666"/>
<path d="M30.8525 43.1886C27.1448 43.1886 22.8724 41.0175 19.4382 39.2713C17.4243 38.2468 15.3638 37.1875 14.4325 37.1875C14.1546 37.1875 13.8881 37.0771 13.6916 36.8806C13.4951 36.6841 13.3848 36.4176 13.3848 36.1398C13.3848 35.8619 13.4951 35.5954 13.6916 35.3989C13.8881 35.2024 14.1546 35.0921 14.4325 35.0921C15.8411 35.0921 17.8492 36.1107 20.387 37.4203C23.6175 39.0617 27.6395 41.1106 30.8642 41.1106C37.2261 41.1106 50.7067 33.0607 50.7067 30.8372C50.6951 28.9396 49.8802 28.1131 48.134 28.1131C47.5519 28.1131 45.8057 29.5683 44.6824 30.5345C42.0747 32.7172 39.1178 35.191 36.5335 34.4634C36.2891 34.3929 36.0788 34.2358 35.9418 34.0216C35.8047 33.8074 35.7502 33.5507 35.7884 33.2993C35.8773 32.9665 35.8889 32.6178 35.8224 32.2798C35.7558 31.9418 35.6128 31.6236 35.4043 31.3494C34.0713 29.7545 30.1657 29.7545 28.4835 29.7603H28.3438C27.1797 29.7603 26.2484 29.0968 25.2007 28.3285C23.3613 26.9781 20.8352 25.1271 14.805 25.0456C14.5271 25.0456 14.2606 24.9352 14.0642 24.7388C13.8677 24.5423 13.7573 24.2758 13.7573 23.9979C13.7573 23.72 13.8677 23.4535 14.0642 23.2571C14.2606 23.0606 14.5271 22.9502 14.805 22.9502C21.5104 23.0433 24.4614 25.2086 26.4114 26.6405C27.2263 27.2225 27.8141 27.6649 28.3147 27.6649H28.4311C30.5498 27.6649 35.0026 27.6649 36.9584 29.9932C37.5423 30.6894 37.8709 31.5643 37.8897 32.4728C39.4321 32.1585 41.6032 30.3366 43.2621 28.9455C45.2004 27.3215 46.7545 26.0351 48.0583 26.0351C51.0327 26.0351 52.7148 27.7813 52.7148 30.8546C52.7905 35.3831 36.6091 43.1886 30.8525 43.1886Z" fill="#666666"/>
<path d="M13.9203 39.6554H1.45252C1.31345 39.6555 1.17577 39.6278 1.04751 39.5741C0.91924 39.5203 0.802956 39.4416 0.705435 39.3424C0.607914 39.2433 0.531107 39.1257 0.479493 38.9966C0.427879 38.8674 0.402491 38.7293 0.404809 38.5903V19.6324C0.404809 19.3546 0.515193 19.0881 0.711677 18.8916C0.908162 18.6951 1.17465 18.5847 1.45252 18.5847H13.9203C14.1982 18.5847 14.4647 18.6951 14.6612 18.8916C14.8577 19.0881 14.9681 19.3546 14.9681 19.6324V38.5903C14.9704 38.7293 14.945 38.8674 14.8934 38.9966C14.8418 39.1257 14.7649 39.2433 14.6674 39.3424C14.5699 39.4416 14.4536 39.5203 14.3254 39.5741C14.1971 39.6278 14.0594 39.6555 13.9203 39.6554ZM2.50024 37.56H12.8726V20.6801H2.50024V37.56Z" fill="#666666"/>
<path d="M36.8188 34.4809H23.0181C22.7402 34.4809 22.4737 34.3705 22.2772 34.174C22.0807 33.9775 21.9703 33.711 21.9703 33.4332C21.9703 33.1553 22.0807 32.8888 22.2772 32.6923C22.4737 32.4958 22.7402 32.3854 23.0181 32.3854H36.8188C37.0967 32.3854 37.3632 32.4958 37.5596 32.6923C37.7561 32.8888 37.8665 33.1553 37.8665 33.4332C37.8665 33.711 37.7561 33.9775 37.5596 34.174C37.3632 34.3705 37.0967 34.4809 36.8188 34.4809Z" fill="#666666"/>
</svg>
