<svg width="14" height="14" viewBox="0 0 14 14" fill="none" xmlns="http://www.w3.org/2000/svg">
<path d="M12.6875 7C12.6875 3.85902 10.141 1.3125 7 1.3125C3.85902 1.3125 1.3125 3.85902 1.3125 7C1.3125 10.141 3.85902 12.6875 7 12.6875C10.141 12.6875 12.6875 10.141 12.6875 7ZM6.87285 9.49812C6.83205 9.45766 6.79963 9.40955 6.77742 9.35656C6.75522 9.30356 6.74367 9.2467 6.74344 9.18924C6.74322 9.13178 6.75431 9.07483 6.77609 9.02166C6.79787 8.96849 6.82992 8.92012 6.87039 8.87934L8.30102 7.4375H4.64844C4.53241 7.4375 4.42113 7.39141 4.33908 7.30936C4.25703 7.22731 4.21094 7.11603 4.21094 7C4.21094 6.88397 4.25703 6.77269 4.33908 6.69064C4.42113 6.60859 4.53241 6.5625 4.64844 6.5625H8.30102L6.87039 5.12066C6.82992 5.07984 6.79789 5.03144 6.77613 4.97823C6.75436 4.92502 6.74329 4.86805 6.74355 4.81057C6.7438 4.75308 6.75537 4.69621 6.77761 4.6432C6.79984 4.59018 6.8323 4.54207 6.87313 4.5016C6.91395 4.46113 6.96235 4.4291 7.01556 4.40734C7.06877 4.38557 7.12574 4.3745 7.18322 4.37476C7.29932 4.37527 7.41046 4.42188 7.49219 4.50434L9.66301 6.69184C9.74433 6.77378 9.78996 6.88455 9.78996 7C9.78996 7.11545 9.74433 7.22622 9.66301 7.30816L7.49219 9.49566C7.45171 9.53654 7.40357 9.56904 7.35052 9.59129C7.29747 9.61355 7.24056 9.62512 7.18303 9.62535C7.1255 9.62557 7.0685 9.61446 7.01527 9.59263C6.96205 9.5708 6.91365 9.53868 6.87285 9.49812V9.49812Z" fill="#51C699"/>
</svg>
