<svg width="16" height="16" viewBox="0 0 16 16" fill="none" xmlns="http://www.w3.org/2000/svg">
<path d="M14.9715 14.0726L12.1382 11.2476C13.0524 10.083 13.5484 8.6448 13.5465 7.16426C13.5465 5.84572 13.1555 4.55678 12.423 3.46046C11.6905 2.36413 10.6493 1.50965 9.43109 1.00506C8.21291 0.500478 6.87247 0.368455 5.57926 0.62569C4.28606 0.882925 3.09817 1.51786 2.16582 2.45021C1.23347 3.38256 0.598532 4.57045 0.341297 5.86366C0.0840621 7.15686 0.216084 8.49731 0.720669 9.71548C1.22525 10.9337 2.07974 11.9748 3.17606 12.7074C4.27239 13.4399 5.56132 13.8309 6.87987 13.8309C8.36041 13.8328 9.79858 13.3367 10.9632 12.4226L13.7882 15.2559C13.8657 15.334 13.9578 15.396 14.0594 15.4383C14.1609 15.4806 14.2699 15.5024 14.3799 15.5024C14.4899 15.5024 14.5988 15.4806 14.7003 15.4383C14.8019 15.396 14.8941 15.334 14.9715 15.2559C15.0496 15.1785 15.1116 15.0863 15.1539 14.9847C15.1962 14.8832 15.218 14.7743 15.218 14.6643C15.218 14.5542 15.1962 14.4453 15.1539 14.3438C15.1116 14.2422 15.0496 14.1501 14.9715 14.0726ZM1.87987 7.16426C1.87987 6.17535 2.17311 5.20865 2.72252 4.38641C3.27192 3.56416 4.05282 2.9233 4.96645 2.54486C5.88008 2.16642 6.88541 2.06741 7.85532 2.26033C8.82522 2.45326 9.71614 2.92946 10.4154 3.62873C11.1147 4.32799 11.5909 5.2189 11.7838 6.18881C11.9767 7.15871 11.8777 8.16405 11.4993 9.07768C11.1208 9.99131 10.48 10.7722 9.65772 11.3216C8.83547 11.871 7.86877 12.1643 6.87987 12.1643C5.55378 12.1643 4.28201 11.6375 3.34433 10.6998C2.40665 9.76211 1.87987 8.49034 1.87987 7.16426Z" fill="#808080"/>
</svg>
