<svg width="32" height="32" viewBox="0 0 32 32" fill="none" xmlns="http://www.w3.org/2000/svg">
<rect width="31.0048" height="31.0048" rx="15.5024" fill="#59D9A8"/>
<path d="M22.7583 21.575L19.925 18.75C20.8392 17.5854 21.3352 16.1472 21.3333 14.6667C21.3333 13.3481 20.9423 12.0592 20.2098 10.9629C19.4773 9.86654 18.4361 9.01206 17.2179 8.50747C15.9997 8.00289 14.6593 7.87087 13.3661 8.1281C12.0729 8.38534 10.885 9.02027 9.95262 9.95262C9.02027 10.885 8.38534 12.0729 8.1281 13.3661C7.87087 14.6593 8.00289 15.9997 8.50747 17.2179C9.01206 18.4361 9.86654 19.4773 10.9629 20.2098C12.0592 20.9423 13.3481 21.3333 14.6667 21.3333C16.1472 21.3352 17.5854 20.8392 18.75 19.925L21.575 22.7583C21.6525 22.8364 21.7446 22.8984 21.8462 22.9407C21.9477 22.9831 22.0567 23.0048 22.1667 23.0048C22.2767 23.0048 22.3856 22.9831 22.4872 22.9407C22.5887 22.8984 22.6809 22.8364 22.7583 22.7583C22.8364 22.6809 22.8984 22.5887 22.9407 22.4872C22.9831 22.3856 23.0048 22.2767 23.0048 22.1667C23.0048 22.0567 22.9831 21.9477 22.9407 21.8462C22.8984 21.7446 22.8364 21.6525 22.7583 21.575V21.575ZM9.66667 14.6667C9.66667 13.6778 9.95991 12.7111 10.5093 11.8888C11.0587 11.0666 11.8396 10.4257 12.7533 10.0473C13.6669 9.66883 14.6722 9.56982 15.6421 9.76274C16.612 9.95567 17.5029 10.4319 18.2022 11.1311C18.9015 11.8304 19.3777 12.7213 19.5706 13.6912C19.7635 14.6611 19.6645 15.6665 19.2861 16.5801C18.9076 17.4937 18.2668 18.2746 17.4445 18.824C16.6223 19.3734 15.6556 19.6667 14.6667 19.6667C13.3406 19.6667 12.0688 19.1399 11.1311 18.2022C10.1935 17.2645 9.66667 15.9928 9.66667 14.6667Z" fill="white"/>
</svg>
