<svg width="12" height="13" viewBox="0 0 12 13" fill="none" xmlns="http://www.w3.org/2000/svg">
<path d="M9.23437 11.75C9.15544 11.7503 9.07843 11.7257 9.01429 11.6797L6 9.49438L2.9857 11.6797C2.9213 11.7264 2.84372 11.7514 2.76417 11.7511C2.68461 11.7508 2.60721 11.7253 2.54315 11.6781C2.4791 11.6309 2.4317 11.5646 2.40782 11.4887C2.38394 11.4128 2.38481 11.3313 2.41031 11.2559L3.58594 7.77383L0.539061 5.68437C0.473064 5.63917 0.423253 5.57404 0.396906 5.4985C0.370559 5.42297 0.369058 5.34099 0.39262 5.26454C0.416183 5.1881 0.463575 5.12119 0.527872 5.07359C0.59217 5.026 0.670003 5.00021 0.749999 5H4.5089L5.64328 1.50898C5.66772 1.43361 5.7154 1.36792 5.77948 1.32133C5.84357 1.27474 5.92077 1.24964 6 1.24964C6.07923 1.24964 6.15643 1.27474 6.22051 1.32133C6.2846 1.36792 6.33228 1.43361 6.35672 1.50898L7.49109 5.00117H11.25C11.3301 5.00113 11.4081 5.02674 11.4726 5.07424C11.5371 5.12175 11.5847 5.18865 11.6084 5.26516C11.6321 5.34166 11.6307 5.42375 11.6044 5.4994C11.578 5.57505 11.5282 5.64028 11.4621 5.68555L8.41406 7.77383L9.58898 11.255C9.60802 11.3114 9.61337 11.3714 9.6046 11.4303C9.59583 11.4891 9.57319 11.545 9.53855 11.5934C9.5039 11.6417 9.45825 11.6812 9.40536 11.7084C9.35247 11.7356 9.29386 11.7499 9.23437 11.75Z" fill="#FFC56E"/>
</svg>
