<svg width="10" height="11" viewBox="0 0 10 11" fill="none" xmlns="http://www.w3.org/2000/svg">
<path d="M8.574 1.01105C8.4849 0.855538 8.35924 0.726816 8.20913 0.637301C8.05902 0.547786 7.88952 0.500498 7.717 0.5H2.283C1.934 0.5 1.6055 0.695789 1.426 1.01105L0.0715002 3.38684C0.0246279 3.46864 -9.74823e-05 3.56237 2.88839e-07 3.65789C0.00199714 4.1659 0.179747 4.65574 0.5 5.03579V9.44737C0.5 10.0279 0.9485 10.5 1.5 10.5H8.5C9.0515 10.5 9.5 10.0279 9.5 9.44737V5.03579C9.82025 4.65574 9.998 4.1659 10 3.65789C10.0001 3.56237 9.97537 3.46864 9.9285 3.38684L8.574 1.01105ZM8.992 3.79C8.96114 4.04412 8.84342 4.27771 8.66086 4.44712C8.4783 4.61653 8.24337 4.71016 8 4.71053C7.4485 4.71053 7 4.23842 7 3.65789C7 3.62211 6.9875 3.59053 6.9805 3.55684L6.9905 3.55474L6.61 1.55263H7.717L8.992 3.79ZM4.4095 1.55263H5.59L5.9965 3.69211C5.979 4.25632 5.54 4.71053 5 4.71053C4.46 4.71053 4.021 4.25632 4.0035 3.69211L4.4095 1.55263ZM2.283 1.55263H3.39L3.01 3.55474L3.02 3.55684C3.0125 3.59053 3 3.62211 3 3.65789C3 4.23842 2.5515 4.71053 2 4.71053C1.75663 4.71016 1.5217 4.61653 1.33914 4.44712C1.15658 4.27771 1.03886 4.04412 1.008 3.79L2.283 1.55263ZM4 9.44737V7.86842H6V9.44737H4ZM7 9.44737V7.86842C7 7.28789 6.5515 6.81579 6 6.81579H4C3.4485 6.81579 3 7.28789 3 7.86842V9.44737H1.5V5.68842C1.6605 5.73211 1.826 5.76316 2 5.76316C2.28391 5.76332 2.56458 5.69968 2.82325 5.57652C3.08193 5.45335 3.31265 5.27349 3.5 5.04895C3.8665 5.48684 4.4035 5.76316 5 5.76316C5.5965 5.76316 6.1335 5.48684 6.5 5.04895C6.68735 5.27349 6.91807 5.45335 7.17675 5.57652C7.43542 5.69968 7.71609 5.76332 8 5.76316C8.174 5.76316 8.3395 5.73211 8.5 5.68842V9.44737H7Z" fill="#666666"/>
</svg>
